<svg xmlns="http://www.w3.org/2000/svg" viewBox="0 0 114 108" fill="none">
  <g transform="scale(6)">
    <path
      d="M1.88865 9.85046C1.98205 9.75031 2.01298 9.61357 2.02288 9.47864C2.03278 9.24836 2.02845 9.01927 2.04329 8.78839C2.32722 4.759 5.9273 1.71492 10.0835 1.99018C11.2334 2.06635 12.3054 2.38839 13.2487 2.90053C13.5351 3.05525 13.5549 3.44686 13.2846 3.62677L12.1396 4.38599L12.1279 4.39378L16.3564 6.09033C16.3533 6.08434 16.3502 6.07834 16.3465 6.07234L18.6173 6.98209C18.7194 7.02287 18.827 6.93951 18.8103 6.83456C18.8103 6.83336 18.8097 6.83156 18.8097 6.83037L18.8078 6.82197L17.6697 0.949705C17.6505 0.852553 17.5354 0.806376 17.4513 0.862148L16.0286 1.80608C15.7873 1.9668 15.4675 1.962 15.2312 1.79468C13.8178 0.788385 12.1019 0.146706 10.2227 0.0219683C4.94439 -0.327657 0.373768 3.53741 0.0131406 8.65405C0.000769167 8.93831 -0.0685109 9.3593 0.244486 9.49903C0.499338 9.61357 0.785737 9.71792 1.04925 9.82707C1.40431 9.9686 1.62452 10.0891 1.88865 9.85046Z"
      fill="white"
    />
    <path
      d="M18.8771 8.50083C18.6223 8.38629 18.3359 8.28194 18.0723 8.1728C17.7173 8.03127 17.4971 7.91073 17.2329 8.14941C17.1395 8.24956 17.1086 8.38629 17.0987 8.52122C17.0888 8.75151 17.0931 8.98059 17.0783 9.21148C16.7944 13.2409 13.1943 16.2849 9.03811 16.0097C7.88818 15.9335 6.8162 15.6115 5.87287 15.0993C5.58647 14.9446 5.56668 14.553 5.837 14.3731L6.98197 13.6139L6.99372 13.6061L2.76517 11.9095C2.76826 11.9155 2.77135 11.9215 2.77507 11.9275L0.504289 11.0178C0.402225 10.977 0.294593 11.0604 0.311295 11.1653C0.311295 11.1665 0.311913 11.1683 0.311913 11.1695L0.313769 11.1779L1.45194 17.0502C1.47112 17.1473 1.58617 17.1935 1.6703 17.1377L3.09301 16.1938C3.33425 16.0331 3.65406 16.0379 3.89035 16.2052C5.30379 17.2115 7.01971 17.8532 8.89893 17.9779C14.1772 18.3275 18.7478 14.4625 19.1085 9.34581C19.1208 9.06155 19.1901 8.64056 18.8771 8.50083Z"
      fill="white"
    />
    <path
      d="M9.63859 4.41472C9.23714 6.58623 7.77298 8.4525 5.75087 8.86029C5.7286 8.86689 5.70077 8.87289 5.67046 8.87888C5.5721 8.89748 5.56839 9.03361 5.66613 9.0558C7.81381 9.53736 9.42271 11.427 9.67633 13.8564C9.70416 14.0693 9.71777 14.1449 9.73509 14.0831C9.75241 14.1449 9.76602 14.0693 9.79385 13.8564C10.0475 11.427 11.6564 9.53736 13.8041 9.0558C13.9018 9.03361 13.8981 8.89748 13.7997 8.87888C13.7694 8.87289 13.7416 8.86689 13.7193 8.86029C11.6972 8.4525 10.233 6.58623 9.83159 4.41472C9.82169 4.36314 9.77839 4.33855 9.73571 4.34155C9.69241 4.33855 9.64911 4.36314 9.63983 4.41472H9.63859Z"
      fill="white"
    />
    <path
      d="M9.7168 3.72588L9.7236 3.70909C9.72175 3.64252 9.72051 3.57596 9.72051 3.50879C9.72051 3.58135 9.71927 3.65392 9.7168 3.72588Z"
      fill="white"
    />
  </g>
</svg>
